<?xml version="1.0" encoding="utf-8"?>
<!-- created with bpmn-js / http://bpmn.io -->
<!DOCTYPE svg PUBLIC "-//W3C//DTD SVG 1.1//EN" "http://www.w3.org/Graphics/SVG/1.1/DTD/svg11.dtd">
<svg xmlns="http://www.w3.org/2000/svg" xmlns:xlink="http://www.w3.org/1999/xlink" width="1052" height="1178" viewBox="522 210 1052 1178" version="1.1"><defs><marker id="sequenceflow-end-white-black-688y12mzvv09hl02pnn8w652h" viewBox="0 0 20 20" refX="11" refY="10" markerWidth="10" markerHeight="10" orient="auto"><path d="M 1 5 L 11 10 L 1 15 Z" style="fill: black; stroke-width: 1px; stroke-linecap: round; stroke-dasharray: 10000, 1; stroke: black;"/></marker><marker id="messageflow-end-white-black-688y12mzvv09hl02pnn8w652h" viewBox="0 0 20 20" refX="8.5" refY="5" markerWidth="20" markerHeight="20" orient="auto"><path d="m 1 5 l 0 -3 l 7 3 l -7 3 z" style="fill: white; stroke-width: 1px; stroke-linecap: butt; stroke-dasharray: 10000, 1; stroke: black;"/></marker><marker id="messageflow-start-white-black-688y12mzvv09hl02pnn8w652h" viewBox="0 0 20 20" refX="6" refY="6" markerWidth="20" markerHeight="20" orient="auto"><circle cx="6" cy="6" r="3.5" style="fill: white; stroke-width: 1px; stroke-linecap: round; stroke-dasharray: 10000, 1; stroke: black;"/></marker><marker id="association-end-white-black-688y12mzvv09hl02pnn8w652h" viewBox="0 0 20 20" refX="12" refY="10" markerWidth="10" markerHeight="10" orient="auto"><path d="M 1 5 L 11 10 L 1 15" style="fill: none; stroke-width: 1.5px; stroke-linecap: round; stroke-dasharray: 10000, 1; stroke: black;"/></marker></defs><g class="djs-group"><g class="djs-element djs-shape selected" data-element-id="Participant_001jl5b" style="display: block;" transform="translate(528 216)"><g class="djs-visual"><rect x="0" y="0" width="1035" height="384" rx="0" ry="0" style="stroke: black; stroke-width: 2px; fill: white; fill-opacity: 0.95;"/><polyline points="30,0 30,384 " style="fill: none; stroke: black; stroke-width: 2px;"/><text lineHeight="1.2" class="djs-label" style="font-family: Arial, sans-serif; font-size: 12px; font-weight: normal; fill: black;" transform="matrix(-1.83697e-16 -1 1 -1.83697e-16 0 384)"><tspan x="171.5" y="18.6">ALUNO</tspan></text></g><rect x="0" y="0" width="1035" height="384" class="djs-hit" style="fill: none; stroke-opacity: 0; stroke: white; stroke-width: 15px;"/><rect x="-6" y="-6" width="1047" height="396" class="djs-outline" style="fill: none;"/></g><g class="djs-children"><g class="djs-group"><g class="djs-element djs-connection" data-element-id="SequenceFlow_0w8pyzw" style="display: block;"><g class="djs-visual"><path d="m  650,337L775,337 " style="fill: none; stroke-width: 2px; stroke: black; stroke-linejoin: round; marker-end: url('#sequenceflow-end-white-black-688y12mzvv09hl02pnn8w652h');"/></g><polyline points="650,337 775,337 " class="djs-hit" style="fill: none; stroke-opacity: 0; stroke: white; stroke-width: 15px;"/><rect x="644" y="331" width="137" height="12" class="djs-outline" style="fill: none;"/></g></g><g class="djs-group"><g class="djs-element djs-connection" data-element-id="SequenceFlow_0t66wxn" style="display: block;"><g class="djs-visual"><path d="m  1109,337L1221,337 " style="fill: none; stroke-width: 2px; stroke: black; stroke-linejoin: round; marker-end: url('#sequenceflow-end-white-black-688y12mzvv09hl02pnn8w652h');"/></g><polyline points="1109,337 1221,337 " class="djs-hit" style="fill: none; stroke-opacity: 0; stroke: white; stroke-width: 15px;"/><rect x="1103" y="331" width="124" height="12" class="djs-outline" style="fill: none;"/></g></g><g class="djs-group"><g class="djs-element djs-connection" data-element-id="SequenceFlow_14wqynx" style="display: block;"><g class="djs-visual"><path d="m  875,337L1009,337 " style="fill: none; stroke-width: 2px; stroke: black; stroke-linejoin: round; marker-end: url('#sequenceflow-end-white-black-688y12mzvv09hl02pnn8w652h');"/></g><polyline points="875,337 1009,337 " class="djs-hit" style="fill: none; stroke-opacity: 0; stroke: white; stroke-width: 15px;"/><rect x="869" y="331" width="146" height="12" class="djs-outline" style="fill: none;"/></g></g><g class="djs-group"><g class="djs-element djs-shape" data-element-id="StartEvent_0087vel" style="display: block;" transform="translate(614 319)"><g class="djs-visual"><circle cx="18" cy="18" r="18" style="stroke: black; stroke-width: 2px; fill: white; fill-opacity: 0.95;"/><path d="m 8.459999999999999,11.34 l 0,12.6 l 18.900000000000002,0 l 0,-12.6 z l 9.450000000000001,5.4 l 9.450000000000001,-5.4" style="fill: white; stroke-width: 1px; stroke: black;"/></g><rect x="0" y="0" width="36" height="36" class="djs-hit" style="fill: none; stroke-opacity: 0; stroke: white; stroke-width: 15px;"/><rect x="-6" y="-6" width="48" height="48" class="djs-outline" style="fill: none;"/></g></g><g class="djs-group"><g class="djs-element djs-shape" data-element-id="EndEvent_0h1vfds" style="display: block;" transform="translate(1221 319)"><g class="djs-visual"><circle cx="18" cy="18" r="18" style="stroke: black; stroke-width: 4px; fill: white; fill-opacity: 0.95;"/></g><rect x="0" y="0" width="36" height="36" class="djs-hit" style="fill: none; stroke-opacity: 0; stroke: white; stroke-width: 15px;"/><rect x="-6" y="-6" width="48" height="48" class="djs-outline" style="fill: none;"/></g></g><g class="djs-group"><g class="djs-element djs-shape" data-element-id="Task_18zhfnw" style="display: block;" transform="translate(1009 297)"><g class="djs-visual"><rect x="0" y="0" width="100" height="80" rx="10" ry="10" style="stroke: black; stroke-width: 2px; fill: white; fill-opacity: 0.95;"/><text lineHeight="1.2" class="djs-label" style="font-family: Arial, sans-serif; font-size: 12px; font-weight: normal; fill: black;"><tspan x="21.8203125" y="22">Entregar o </tspan><tspan x="19.8203125" y="36.4">relatório ao </tspan><tspan x="24.9921875" y="50.8">professor </tspan><tspan x="22.984375" y="65.19999999999999">orientador</tspan></text><path d="m 5.984999999999999,4.997999999999999 l 0,14 l 21,0 l 0,-14 z l 10.5,6 l 10.5,-6" style="fill: black; stroke-width: 1px; stroke: white;"/></g><rect x="0" y="0" width="100" height="80" class="djs-hit" style="fill: none; stroke-opacity: 0; stroke: white; stroke-width: 15px;"/><rect x="-6" y="-6" width="112" height="92" class="djs-outline" style="fill: none;"/></g></g><g class="djs-group"><g class="djs-element djs-shape" data-element-id="Task_1fr0hpx" style="display: block;" transform="translate(775 297)"><g class="djs-visual"><rect x="0" y="0" width="100" height="80" rx="10" ry="10" style="stroke: black; stroke-width: 2px; fill: white; fill-opacity: 0.95;"/><text lineHeight="1.2" class="djs-label" style="font-family: Arial, sans-serif; font-size: 12px; font-weight: normal; fill: black;"><tspan x="27.3203125" y="22">Elaborar </tspan><tspan x="19.8203125" y="36.4">relatório de </tspan><tspan x="22.984375" y="50.8">atividades </tspan><tspan x="22.65625" y="65.19999999999999">realizadas</tspan></text></g><rect x="0" y="0" width="100" height="80" class="djs-hit" style="fill: none; stroke-opacity: 0; stroke: white; stroke-width: 15px;"/><rect x="-6" y="-6" width="112" height="92" class="djs-outline" style="fill: none;"/></g></g><g class="djs-group"><g class="djs-element djs-shape" data-element-id="DataObjectReference_1br4jjm" style="display: block;" transform="translate(807 455)"><g class="djs-visual"><path d="m 0,0 28.23529411764706,0 7.058823529411765,8.196721311475411 0,40.98360655737705 -35.294117647058826,0 0,-49.18032786885246 28.23529411764706,0 0,8.196721311475411 7.058823529411765,0" style="fill: white; stroke-width: 2px; stroke: black; fill-opacity: 0.95;"/></g><rect x="0" y="0" width="36" height="50" class="djs-hit" style="fill: none; stroke-opacity: 0; stroke: white; stroke-width: 15px;"/><rect x="-6" y="-6" width="48" height="62" class="djs-outline" style="fill: none;"/></g></g><g class="djs-group"><g class="djs-element djs-shape" data-element-id="StartEvent_0087vel_label" style="display: block;" transform="translate(595 269)"><g class="djs-visual"><text lineHeight="1.2" class="djs-label" style="font-family: Arial, sans-serif; font-size: 11px; font-weight: normal; fill: black;"><tspan x="20.5625" y="9.899999999999999">Reunir </tspan><tspan x="3.640625" y="23.099999999999998">documento(s) </tspan><tspan x="4.2578125" y="36.3">necessário(s) </tspan><tspan x="0" y="49.5">para o relatório</tspan></text></g><rect x="0" y="0" width="74" height="53" class="djs-hit" style="fill: none; stroke-opacity: 0; stroke: white; stroke-width: 15px;"/><rect x="-6" y="-6" width="86" height="65" class="djs-outline" style="fill: none;"/></g></g><g class="djs-group"><g class="djs-element djs-shape" data-element-id="DataObjectReference_1br4jjm_label" style="display: block;" transform="translate(792 512)"><g class="djs-visual"><text lineHeight="1.2" class="djs-label" style="font-family: Arial, sans-serif; font-size: 11px; font-weight: normal; fill: black;"><tspan x="3.5625" y="9.899999999999999">Relatório de </tspan><tspan x="8.140625" y="23.099999999999998">atividades </tspan><tspan x="0" y="36.3">realizadas na </tspan><tspan x="15.484375" y="49.5">estágio</tspan></text></g><rect x="0" y="0" width="67" height="53" class="djs-hit" style="fill: none; stroke-opacity: 0; stroke: white; stroke-width: 15px;"/><rect x="-6" y="-6" width="79" height="65" class="djs-outline" style="fill: none;"/></g></g></g></g><g class="djs-group"><g class="djs-element djs-shape" data-element-id="Participant_13gxkbb" style="display: block;" transform="translate(528 640)"><g class="djs-visual"><rect x="0" y="0" width="1040" height="742" rx="0" ry="0" style="stroke: black; stroke-width: 2px; fill: white; fill-opacity: 0.95;"/><polyline points="30,0 30,742 " style="fill: none; stroke: black; stroke-width: 2px;"/><text lineHeight="1.2" class="djs-label" style="font-family: Arial, sans-serif; font-size: 12px; font-weight: normal; fill: black;" transform="matrix(-1.83697e-16 -1 1 -1.83697e-16 0 742)"><tspan x="229.359375" y="18.6">PARECER FINAL DO ESTÁGIO SUPERVISIONADO</tspan></text></g><rect x="0" y="0" width="1040" height="742" class="djs-hit" style="fill: none; stroke-opacity: 0; stroke: white; stroke-width: 15px;"/><rect x="-6" y="-6" width="1052" height="754" class="djs-outline" style="fill: none;"/></g><g class="djs-children"><g class="djs-group"><g class="djs-element djs-shape" data-element-id="Lane_02ju93c" style="display: block;" transform="translate(558 640)"><g class="djs-visual"><rect x="0" y="0" width="1010" height="742" rx="0" ry="0" style="stroke: black; stroke-width: 2px; fill: white; fill-opacity: 0.35;"/><text lineHeight="1.2" class="djs-label" style="font-family: Arial, sans-serif; font-size: 12px; font-weight: normal; fill: black;" transform="matrix(-1.83697e-16 -1 1 -1.83697e-16 0 742)"><tspan x="357.171875" y="18.6">IFES</tspan></text></g><rect x="0" y="0" width="1010" height="742" class="djs-hit" style="fill: none; stroke-opacity: 0; stroke: white; stroke-width: 15px;"/><rect x="-6" y="-6" width="1022" height="754" class="djs-outline" style="fill: none;"/></g><g class="djs-children"><g class="djs-group"><g class="djs-element djs-shape" data-element-id="Lane_0laojzy" style="display: block;" transform="translate(588 640)"><g class="djs-visual"><rect x="0" y="0" width="980" height="409" rx="0" ry="0" style="stroke: black; stroke-width: 2px; fill: white; fill-opacity: 0.35;"/><text lineHeight="1.2" class="djs-label" style="font-family: Arial, sans-serif; font-size: 12px; font-weight: normal; fill: black;" transform="matrix(-1.83697e-16 -1 1 -1.83697e-16 0 409)"><tspan x="148.8125" y="18.6">Professor Orientador</tspan></text></g><rect x="0" y="0" width="980" height="409" class="djs-hit" style="fill: none; stroke-opacity: 0; stroke: white; stroke-width: 15px;"/><rect x="-6" y="-6" width="992" height="421" class="djs-outline" style="fill: none;"/></g></g><g class="djs-group"><g class="djs-element djs-shape" data-element-id="Lane_0w264o7" style="display: block;" transform="translate(588 1049)"><g class="djs-visual"><rect x="0" y="0" width="980" height="333" rx="0" ry="0" style="stroke: black; stroke-width: 2px; fill: white; fill-opacity: 0.35;"/><text lineHeight="1.2" class="djs-label" style="font-family: Arial, sans-serif; font-size: 12px; font-weight: normal; fill: black;" transform="matrix(-1.83697e-16 -1 1 -1.83697e-16 0 333)"><tspan x="105.3046875" y="18.6">Coordenador do Curso</tspan></text></g><rect x="0" y="0" width="980" height="333" class="djs-hit" style="fill: none; stroke-opacity: 0; stroke: white; stroke-width: 15px;"/><rect x="-6" y="-6" width="992" height="345" class="djs-outline" style="fill: none;"/></g></g></g></g><g class="djs-group"><g class="djs-element djs-connection" data-element-id="SequenceFlow_1nw5cdm" style="display: block;"><g class="djs-visual"><path d="m  685,764L756,764 " style="fill: none; stroke-width: 2px; stroke: black; stroke-linejoin: round; marker-end: url('#sequenceflow-end-white-black-688y12mzvv09hl02pnn8w652h');"/></g><polyline points="685,764 756,764 " class="djs-hit" style="fill: none; stroke-opacity: 0; stroke: white; stroke-width: 15px;"/><rect x="679" y="758" width="83" height="12" class="djs-outline" style="fill: none;"/></g></g><g class="djs-group"><g class="djs-element djs-connection" data-element-id="SequenceFlow_1jw8h28" style="display: block;"><g class="djs-visual"><path d="m  856,764L927,764 " style="fill: none; stroke-width: 2px; stroke: black; stroke-linejoin: round; marker-end: url('#sequenceflow-end-white-black-688y12mzvv09hl02pnn8w652h');"/></g><polyline points="856,764 927,764 " class="djs-hit" style="fill: none; stroke-opacity: 0; stroke: white; stroke-width: 15px;"/><rect x="850" y="758" width="83" height="12" class="djs-outline" style="fill: none;"/></g></g><g class="djs-group"><g class="djs-element djs-connection" data-element-id="SequenceFlow_1c3cbbt" style="display: block;"><g class="djs-visual"><path d="m  963,764L1034,764 " style="fill: none; stroke-width: 2px; stroke: black; stroke-linejoin: round; marker-end: url('#sequenceflow-end-white-black-688y12mzvv09hl02pnn8w652h');"/></g><polyline points="963,764 1034,764 " class="djs-hit" style="fill: none; stroke-opacity: 0; stroke: white; stroke-width: 15px;"/><rect x="957" y="758" width="83" height="12" class="djs-outline" style="fill: none;"/></g></g><g class="djs-group"><g class="djs-element djs-connection" data-element-id="SequenceFlow_177s7op" style="display: block;"><g class="djs-visual"><path d="m  783,1183L895,1183 " style="fill: none; stroke-width: 2px; stroke: black; stroke-linejoin: round; marker-end: url('#sequenceflow-end-white-black-688y12mzvv09hl02pnn8w652h');"/></g><polyline points="783,1183 895,1183 " class="djs-hit" style="fill: none; stroke-opacity: 0; stroke: white; stroke-width: 15px;"/><rect x="777" y="1177" width="124" height="12" class="djs-outline" style="fill: none;"/></g></g><g class="djs-group"><g class="djs-element djs-connection" data-element-id="SequenceFlow_0adgfjc" style="display: block;"><g class="djs-visual"><path d="m  1134,764L1201,764 " style="fill: none; stroke-width: 2px; stroke: black; stroke-linejoin: round; marker-end: url('#sequenceflow-end-white-black-688y12mzvv09hl02pnn8w652h');"/></g><polyline points="1134,764 1201,764 " class="djs-hit" style="fill: none; stroke-opacity: 0; stroke: white; stroke-width: 15px;"/><rect x="1128" y="758" width="79" height="12" class="djs-outline" style="fill: none;"/></g></g><g class="djs-group"><g class="djs-element djs-connection" data-element-id="SequenceFlow_1jg7vj3" style="display: block;"><g class="djs-visual"><path d="m  1301,764L1368,764 " style="fill: none; stroke-width: 2px; stroke: black; stroke-linejoin: round; marker-end: url('#sequenceflow-end-white-black-688y12mzvv09hl02pnn8w652h');"/></g><polyline points="1301,764 1368,764 " class="djs-hit" style="fill: none; stroke-opacity: 0; stroke: white; stroke-width: 15px;"/><rect x="1295" y="758" width="79" height="12" class="djs-outline" style="fill: none;"/></g></g><g class="djs-group"><g class="djs-element djs-connection" data-element-id="SequenceFlow_19c39q4" style="display: block;"><g class="djs-visual"><path d="m  1468,764L1498,764 L1498,1026 L733,1026 L733,1143 " style="fill: none; stroke-width: 2px; stroke: black; stroke-linejoin: round; marker-end: url('#sequenceflow-end-white-black-688y12mzvv09hl02pnn8w652h');"/></g><polyline points="1468,764 1498,764 1498,1026 733,1026 733,1143 " class="djs-hit" style="fill: none; stroke-opacity: 0; stroke: white; stroke-width: 15px;"/><rect x="727" y="758" width="777" height="391" class="djs-outline" style="fill: none;"/></g></g><g class="djs-group"><g class="djs-element djs-connection" data-element-id="SequenceFlow_0mj3ux7" style="display: block;"><g class="djs-visual"><path d="m  995,1183L1107,1183 " style="fill: none; stroke-width: 2px; stroke: black; stroke-linejoin: round; marker-end: url('#sequenceflow-end-white-black-688y12mzvv09hl02pnn8w652h');"/></g><polyline points="995,1183 1107,1183 " class="djs-hit" style="fill: none; stroke-opacity: 0; stroke: white; stroke-width: 15px;"/><rect x="989" y="1177" width="124" height="12" class="djs-outline" style="fill: none;"/></g></g><g class="djs-group"><g class="djs-element djs-shape" data-element-id="StartEvent_13hol9u" style="display: block;" transform="translate(649 746)"><g class="djs-visual"><circle cx="18" cy="18" r="18" style="stroke: black; stroke-width: 2px; fill: white; fill-opacity: 0.95;"/></g><rect x="0" y="0" width="36" height="36" class="djs-hit" style="fill: none; stroke-opacity: 0; stroke: white; stroke-width: 15px;"/><rect x="-6" y="-6" width="48" height="48" class="djs-outline" style="fill: none;"/></g></g><g class="djs-group"><g class="djs-element djs-shape" data-element-id="StartEvent_13hol9u_label" style="display: block;" transform="translate(642 789)"><g class="djs-visual"><text lineHeight="1.2" class="djs-label" style="font-family: Arial, sans-serif; font-size: 11px; font-weight: normal; fill: black;"><tspan x="7.953125" y="9.899999999999999">Estágio </tspan><tspan x="0" y="23.099999999999998">finalizando</tspan></text></g><rect x="0" y="0" width="53" height="27" class="djs-hit" style="fill: none; stroke-opacity: 0; stroke: white; stroke-width: 15px;"/><rect x="-6" y="-6" width="65" height="39" class="djs-outline" style="fill: none;"/></g></g><g class="djs-group"><g class="djs-element djs-shape" data-element-id="Task_0mbw9w6" style="display: block;" transform="translate(756 724)"><g class="djs-visual"><rect x="0" y="0" width="100" height="80" rx="10" ry="10" style="stroke: black; stroke-width: 2px; fill: white; fill-opacity: 0.95;"/><text lineHeight="1.2" class="djs-label" style="font-family: Arial, sans-serif; font-size: 12px; font-weight: normal; fill: black;"><tspan x="28.6640625" y="22">Solicitar </tspan><tspan x="19.8203125" y="36.4">relatório de </tspan><tspan x="22.984375" y="50.8">atividades </tspan><tspan x="22.65625" y="65.19999999999999">realizadas</tspan></text><path d="m 5.984999999999999,4.997999999999999 l 0,14 l 21,0 l 0,-14 z l 10.5,6 l 10.5,-6" style="fill: black; stroke-width: 1px; stroke: white;"/></g><rect x="0" y="0" width="100" height="80" class="djs-hit" style="fill: none; stroke-opacity: 0; stroke: white; stroke-width: 15px;"/><rect x="-6" y="-6" width="112" height="92" class="djs-outline" style="fill: none;"/></g></g><g class="djs-group"><g class="djs-element djs-shape" data-element-id="IntermediateThrowEvent_1ffbv15" style="display: block;" transform="translate(927 746)"><g class="djs-visual"><circle cx="18" cy="18" r="18" style="stroke: black; stroke-width: 1px; fill: white; fill-opacity: 0.95;"/><circle cx="18" cy="18" r="15" style="stroke: black; stroke-width: 1px; fill: none;"/><circle cx="18" cy="18" r="11" style="stroke: black; stroke-width: 2px; fill: white;"/><path d="M 18,18 l 2.25,-7.5 m -2.25,7.5 l 5.25,1.5 " style="fill: none; stroke-width: 2px; stroke: black; stroke-linecap: square;"/><path d="M 18,18 m 0,7.5 l -0,2.25 " transform="rotate(0,18,18)" style="fill: none; stroke-width: 1px; stroke: black; stroke-linecap: square;"/><path d="M 18,18 m 0,7.5 l -0,2.25 " transform="rotate(30,18,18)" style="fill: none; stroke-width: 1px; stroke: black; stroke-linecap: square;"/><path d="M 18,18 m 0,7.5 l -0,2.25 " transform="rotate(60,18,18)" style="fill: none; stroke-width: 1px; stroke: black; stroke-linecap: square;"/><path d="M 18,18 m 0,7.5 l -0,2.25 " transform="rotate(90,18,18)" style="fill: none; stroke-width: 1px; stroke: black; stroke-linecap: square;"/><path d="M 18,18 m 0,7.5 l -0,2.25 " transform="rotate(120,18,18)" style="fill: none; stroke-width: 1px; stroke: black; stroke-linecap: square;"/><path d="M 18,18 m 0,7.5 l -0,2.25 " transform="rotate(150,18,18)" style="fill: none; stroke-width: 1px; stroke: black; stroke-linecap: square;"/><path d="M 18,18 m 0,7.5 l -0,2.25 " transform="rotate(180,18,18)" style="fill: none; stroke-width: 1px; stroke: black; stroke-linecap: square;"/><path d="M 18,18 m 0,7.5 l -0,2.25 " transform="rotate(210,18,18)" style="fill: none; stroke-width: 1px; stroke: black; stroke-linecap: square;"/><path d="M 18,18 m 0,7.5 l -0,2.25 " transform="rotate(240,18,18)" style="fill: none; stroke-width: 1px; stroke: black; stroke-linecap: square;"/><path d="M 18,18 m 0,7.5 l -0,2.25 " transform="rotate(270,18,18)" style="fill: none; stroke-width: 1px; stroke: black; stroke-linecap: square;"/><path d="M 18,18 m 0,7.5 l -0,2.25 " transform="rotate(300,18,18)" style="fill: none; stroke-width: 1px; stroke: black; stroke-linecap: square;"/><path d="M 18,18 m 0,7.5 l -0,2.25 " transform="rotate(330,18,18)" style="fill: none; stroke-width: 1px; stroke: black; stroke-linecap: square;"/></g><rect x="0" y="0" width="36" height="36" class="djs-hit" style="fill: none; stroke-opacity: 0; stroke: white; stroke-width: 15px;"/><rect x="-6" y="-6" width="48" height="48" class="djs-outline" style="fill: none;"/></g></g><g class="djs-group"><g class="djs-element djs-shape" data-element-id="IntermediateThrowEvent_1ffbv15_label" style="display: block;" transform="translate(918 789)"><g class="djs-visual"><text lineHeight="1.2" class="djs-label" style="font-family: Arial, sans-serif; font-size: 11px; font-weight: normal; fill: black;"><tspan x="0" y="9.899999999999999">Período da </tspan><tspan x="1.7265625" y="23.099999999999998">solicitação</tspan></text></g><rect x="0" y="0" width="55" height="27" class="djs-hit" style="fill: none; stroke-opacity: 0; stroke: white; stroke-width: 15px;"/><rect x="-6" y="-6" width="67" height="39" class="djs-outline" style="fill: none;"/></g></g><g class="djs-group"><g class="djs-element djs-shape" data-element-id="Task_1neyg1p" style="display: block;" transform="translate(1034 724)"><g class="djs-visual"><rect x="0" y="0" width="100" height="80" rx="10" ry="10" style="stroke: black; stroke-width: 2px; fill: white; fill-opacity: 0.95;"/><text lineHeight="1.2" class="djs-label" style="font-family: Arial, sans-serif; font-size: 12px; font-weight: normal; fill: black;"><tspan x="22.15625" y="29.200000000000003">Receber o </tspan><tspan x="19.8203125" y="43.6">relatório de </tspan><tspan x="22.984375" y="58">atividades</tspan></text><path d="m 6.3,5.6000000000000005 l 0,12.6 l 18.900000000000002,0 l 0,-12.6 z l 9.450000000000001,5.4 l 9.450000000000001,-5.4" style="fill: white; stroke-width: 1px; stroke: black;"/></g><rect x="0" y="0" width="100" height="80" class="djs-hit" style="fill: none; stroke-opacity: 0; stroke: white; stroke-width: 15px;"/><rect x="-6" y="-6" width="112" height="92" class="djs-outline" style="fill: none;"/></g></g><g class="djs-group"><g class="djs-element djs-shape" data-element-id="Task_0z0vw0j" style="display: block;" transform="translate(895 1143)"><g class="djs-visual"><rect x="0" y="0" width="100" height="80" rx="10" ry="10" style="stroke: black; stroke-width: 2px; fill: white; fill-opacity: 0.95;"/><text lineHeight="1.2" class="djs-label" style="font-family: Arial, sans-serif; font-size: 12px; font-weight: normal; fill: black;"><tspan x="15.4921875" y="22">Homologar o </tspan><tspan x="8.8203125" y="36.4">parecer técnico </tspan><tspan x="16.6484375" y="50.8">do professor </tspan><tspan x="22.984375" y="65.19999999999999">orientador</tspan></text></g><rect x="0" y="0" width="100" height="80" class="djs-hit" style="fill: none; stroke-opacity: 0; stroke: white; stroke-width: 15px;"/><rect x="-6" y="-6" width="112" height="92" class="djs-outline" style="fill: none;"/></g></g><g class="djs-group"><g class="djs-element djs-shape" data-element-id="Task_0k3bwsm" style="display: block;" transform="translate(683 1143)"><g class="djs-visual"><rect x="0" y="0" width="100" height="80" rx="10" ry="10" style="stroke: black; stroke-width: 2px; fill: white; fill-opacity: 0.95;"/><text lineHeight="1.2" class="djs-label" style="font-family: Arial, sans-serif; font-size: 12px; font-weight: normal; fill: black;"><tspan x="27.3203125" y="29.200000000000003">Receber </tspan><tspan x="15.8203125" y="43.6">parecer para </tspan><tspan x="13.8125" y="58">homologação</tspan></text><path d="m 6.3,5.6000000000000005 l 0,12.6 l 18.900000000000002,0 l 0,-12.6 z l 9.450000000000001,5.4 l 9.450000000000001,-5.4" style="fill: white; stroke-width: 1px; stroke: black;"/></g><rect x="0" y="0" width="100" height="80" class="djs-hit" style="fill: none; stroke-opacity: 0; stroke: white; stroke-width: 15px;"/><rect x="-6" y="-6" width="112" height="92" class="djs-outline" style="fill: none;"/></g></g><g class="djs-group"><g class="djs-element djs-shape" data-element-id="DataObjectReference_0t3wfvd" style="display: block;" transform="translate(976 885)"><g class="djs-visual"><path d="m 0,0 28.23529411764706,0 7.058823529411765,8.196721311475411 0,40.98360655737705 -35.294117647058826,0 0,-49.18032786885246 28.23529411764706,0 0,8.196721311475411 7.058823529411765,0" style="fill: white; stroke-width: 2px; stroke: black; fill-opacity: 0.95;"/></g><rect x="0" y="0" width="36" height="50" class="djs-hit" style="fill: none; stroke-opacity: 0; stroke: white; stroke-width: 15px;"/><rect x="-6" y="-6" width="48" height="62" class="djs-outline" style="fill: none;"/></g></g><g class="djs-group"><g class="djs-element djs-shape" data-element-id="DataObjectReference_0t3wfvd_label" style="display: block;" transform="translate(961 942)"><g class="djs-visual"><text lineHeight="1.2" class="djs-label" style="font-family: Arial, sans-serif; font-size: 11px; font-weight: normal; fill: black;"><tspan x="3.5625" y="9.899999999999999">Relatório de </tspan><tspan x="8.140625" y="23.099999999999998">atividades </tspan><tspan x="0" y="36.3">realizadas na </tspan><tspan x="15.484375" y="49.5">estágio</tspan></text></g><rect x="0" y="0" width="67" height="53" class="djs-hit" style="fill: none; stroke-opacity: 0; stroke: white; stroke-width: 15px;"/><rect x="-6" y="-6" width="79" height="65" class="djs-outline" style="fill: none;"/></g></g><g class="djs-group"><g class="djs-element djs-shape" data-element-id="Task_121qq3x" style="display: block;" transform="translate(1201 724)"><g class="djs-visual"><rect x="0" y="0" width="100" height="80" rx="10" ry="10" style="stroke: black; stroke-width: 2px; fill: white; fill-opacity: 0.95;"/><text lineHeight="1.2" class="djs-label" style="font-family: Arial, sans-serif; font-size: 12px; font-weight: normal; fill: black;"><tspan x="21.4921875" y="22">Preparar o </tspan><tspan x="8.8203125" y="36.4">parecer técnico</tspan><tspan x="37.828125" y="50.8">para </tspan><tspan x="13.8125" y="65.19999999999999">homologação</tspan></text></g><rect x="0" y="0" width="100" height="80" class="djs-hit" style="fill: none; stroke-opacity: 0; stroke: white; stroke-width: 15px;"/><rect x="-6" y="-6" width="112" height="92" class="djs-outline" style="fill: none;"/></g></g><g class="djs-group"><g class="djs-element djs-shape" data-element-id="Task_0sa6lbx" style="display: block;" transform="translate(1368 724)"><g class="djs-visual"><rect x="0" y="0" width="100" height="80" rx="10" ry="10" style="stroke: black; stroke-width: 2px; fill: white; fill-opacity: 0.95;"/><text lineHeight="1.2" class="djs-label" style="font-family: Arial, sans-serif; font-size: 12px; font-weight: normal; fill: black;"><tspan x="10.984375" y="29.200000000000003">Enviar parecer </tspan><tspan x="37.828125" y="43.6">para </tspan><tspan x="13.8125" y="58">homologação</tspan></text><path d="m 5.984999999999999,4.997999999999999 l 0,14 l 21,0 l 0,-14 z l 10.5,6 l 10.5,-6" style="fill: black; stroke-width: 1px; stroke: white;"/></g><rect x="0" y="0" width="100" height="80" class="djs-hit" style="fill: none; stroke-opacity: 0; stroke: white; stroke-width: 15px;"/><rect x="-6" y="-6" width="112" height="92" class="djs-outline" style="fill: none;"/></g></g><g class="djs-group"><g class="djs-element djs-shape" data-element-id="EndEvent_1uumcj5" style="display: block;" transform="translate(1107 1165)"><g class="djs-visual"><circle cx="18" cy="18" r="18" style="stroke: black; stroke-width: 4px; fill: white; fill-opacity: 0.95;"/></g><rect x="0" y="0" width="36" height="36" class="djs-hit" style="fill: none; stroke-opacity: 0; stroke: white; stroke-width: 15px;"/><rect x="-6" y="-6" width="48" height="48" class="djs-outline" style="fill: none;"/></g></g></g></g><g class="djs-group"><g class="djs-element djs-connection" data-element-id="MessageFlow_1rwdrvx" style="display: block;"><g class="djs-visual"><path d="m  806,724L806,611 L632,611 L632,355 " style="fill: none; stroke-width: 1.5px; stroke: black; marker-end: url('#messageflow-end-white-black-688y12mzvv09hl02pnn8w652h'); marker-start: url('#messageflow-start-white-black-688y12mzvv09hl02pnn8w652h'); stroke-dasharray: 10, 12; stroke-linecap: round; stroke-linejoin: round;"/></g><polyline points="806,724 806,611 632,611 632,355 " class="djs-hit" style="fill: none; stroke-opacity: 0; stroke: white; stroke-width: 15px;"/><rect x="626" y="349" width="186" height="381" class="djs-outline" style="fill: none;"/></g></g><g class="djs-group"><g class="djs-element djs-connection" data-element-id="MessageFlow_1v3j94a" style="display: block;"><g class="djs-visual"><path d="m  1059,377L1059,724 " style="fill: none; stroke-width: 1.5px; stroke: black; marker-end: url('#messageflow-end-white-black-688y12mzvv09hl02pnn8w652h'); marker-start: url('#messageflow-start-white-black-688y12mzvv09hl02pnn8w652h'); stroke-dasharray: 10, 12; stroke-linecap: round; stroke-linejoin: round;"/></g><polyline points="1059,377 1059,724 " class="djs-hit" style="fill: none; stroke-opacity: 0; stroke: white; stroke-width: 15px;"/><rect x="1053" y="371" width="12" height="359" class="djs-outline" style="fill: none;"/></g></g><g class="djs-group"><g class="djs-element djs-connection" data-element-id="DataInputAssociation_0mll8of" style="display: block;"><g class="djs-visual"><polyline points="843,469 1009,367 " style="fill: none; stroke: black; stroke-width: 2px; stroke-dasharray: 0.5, 5; stroke-linecap: round; stroke-linejoin: round; marker-end: url('#association-end-white-black-688y12mzvv09hl02pnn8w652h');"/></g><polyline points="843,469 1009,367 " class="djs-hit" style="fill: none; stroke-opacity: 0; stroke: white; stroke-width: 15px;"/><rect x="837" y="361" width="178" height="114" class="djs-outline" style="fill: none;"/></g></g><g class="djs-group"><g class="djs-element djs-connection" data-element-id="DataOutputAssociation_16jdmqx" style="display: block;"><g class="djs-visual"><polyline points="825,377 825,455 " style="fill: none; stroke: black; stroke-width: 2px; stroke-dasharray: 0.5, 5; stroke-linecap: round; stroke-linejoin: round; marker-end: url('#association-end-white-black-688y12mzvv09hl02pnn8w652h');"/></g><polyline points="825,377 825,455 " class="djs-hit" style="fill: none; stroke-opacity: 0; stroke: white; stroke-width: 15px;"/><rect x="819" y="371" width="12" height="90" class="djs-outline" style="fill: none;"/></g></g><g class="djs-group"><g class="djs-element djs-connection" data-element-id="DataOutputAssociation_18in48l" style="display: block;"><g class="djs-visual"><polyline points="1059,804 1009,885 " style="fill: none; stroke: black; stroke-width: 2px; stroke-dasharray: 0.5, 5; stroke-linecap: round; stroke-linejoin: round; marker-end: url('#association-end-white-black-688y12mzvv09hl02pnn8w652h');"/></g><polyline points="1059,804 1009,885 " class="djs-hit" style="fill: none; stroke-opacity: 0; stroke: white; stroke-width: 15px;"/><rect x="1003" y="798" width="62" height="93" class="djs-outline" style="fill: none;"/></g></g><g class="djs-drag-group" style="pointer-events: none;" transform="translate(197 33)"/><g class="djs-drag-group" style="pointer-events: none;" transform="translate(46 105)"/><g class="djs-drag-group" style="pointer-events: none;" transform="translate(-14 -98)"/><g class="djs-drag-group" style="pointer-events: none;" transform="translate(-136 97)"/><g class="djs-drag-group" style="pointer-events: none;" transform="translate(0 23)"/><g class="djs-drag-group" style="pointer-events: none;" transform="translate(44 0)"/><g class="djs-drag-group" style="pointer-events: none;" transform="translate(-662 361)"/><g class="djs-drag-group" style="pointer-events: none;" transform="translate(459 48)"/><g class="djs-drag-group" style="pointer-events: none;" transform="translate(-47 9)"/><g class="djs-drag-group" style="pointer-events: none;" transform="translate(36 98)"/><g class="djs-drag-group" style="pointer-events: none;" transform="translate(-9 -33)"/><g class="djs-drag-group" style="pointer-events: none;" transform="translate(15 24)"/><g class="djs-drag-group" style="pointer-events: none;" transform="translate(-218 229)"/><g class="djs-drag-group" style="pointer-events: none;" transform="translate(0 240)"/><g class="djs-drag-group" style="pointer-events: none;" transform="translate(0 240)"/><g class="djs-drag-group" style="pointer-events: none;" transform="translate(30 0)"/><g class="djs-drag-group" style="pointer-events: none;" transform="translate(9 1)"/><g class="djs-drag-group" style="pointer-events: none;" transform="translate(-7 -29)"/><g class="djs-drag-group" style="pointer-events: none;" transform="translate(-6 42)"/><g class="djs-drag-group" style="pointer-events: none;" transform="translate(186 0)"/><g class="djs-drag-group" style="pointer-events: none;" transform="translate(37 1)"/><g class="djs-drag-group" style="pointer-events: none;" transform="translate(-118 0)"/><g class="djs-drag-group" style="pointer-events: none;" transform="translate(26 240)"/><g class="djs-drag-group" style="pointer-events: none;" transform="translate(0 -50)"/><g class="djs-drag-group" style="pointer-events: none;" transform="translate(-1 19)"/><g class="djs-drag-group" style="pointer-events: none;" transform="translate(-9 3)"/><g class="djs-drag-group" style="pointer-events: none;" transform="translate(9 63)"/><g class="djs-drag-group" style="pointer-events: none;" transform="translate(21 0)"/><g class="djs-drag-group" style="pointer-events: none;" transform="translate(62 0)"/><g class="djs-drag-group" style="pointer-events: none;" transform="translate(-143 28)"/><g class="djs-drag-group" style="pointer-events: none;" transform="translate(-76 0)"/><g class="djs-drag-group" style="pointer-events: none;" transform="translate(0 9)"/><g class="djs-drag-group" style="pointer-events: none;" transform="translate(266 -8)"/><g class="djs-drag-group" style="pointer-events: none;" transform="translate(325 0)"/><g class="djs-drag-group" style="pointer-events: none;" transform="translate(181 0)"/><g class="djs-drag-group" style="pointer-events: none;" transform="translate(-52 0)"/><g class="djs-drag-group" style="pointer-events: none;" transform="translate(32 0)"/><g class="djs-drag-group" style="pointer-events: none;" transform="translate(-16 0)"/><g class="djs-drag-group" style="pointer-events: none;" transform="translate(-159 0)"/><g class="djs-drag-group" style="pointer-events: none;" transform="translate(123 0)"/><g class="djs-drag-group" style="pointer-events: none;" transform="translate(151 0)"/><g class="djs-drag-group" style="pointer-events: none;" transform="translate(184 0)"/><g class="djs-drag-group" style="pointer-events: none;" transform="translate(131 0)"/><g class="djs-drag-group" style="pointer-events: none;" transform="translate(32 0)"/><g class="djs-drag-group" style="pointer-events: none;" transform="translate(3 6)"/><g class="djs-drag-group" style="pointer-events: none;" transform="translate(-3 -21)"/><g class="djs-drag-group" style="pointer-events: none;" transform="translate(-90 -110)"/><g class="djs-drag-group" style="pointer-events: none;" transform="translate(-119 -110)"/><g class="djs-drag-group" style="pointer-events: none;" transform="translate(41 9)"/><g class="djs-drag-group" style="pointer-events: none;" transform="translate(0 -22)"/><g class="djs-drag-group" style="pointer-events: none;" transform="translate(8 13)"/><g class="djs-drag-group" style="pointer-events: none;" transform="translate(22 0)"/><g class="djs-drag-group" style="pointer-events: none;" transform="translate(77 0)"/><g class="djs-drag-group" style="pointer-events: none;" transform="translate(116 0)"/><g class="djs-drag-group" style="pointer-events: none;" transform="translate(147 0)"/><g class="djs-drag-group" style="pointer-events: none;" transform="translate(285 0)"/><g class="djs-drag-group" style="pointer-events: none;" transform="translate(6 3)"/><g class="djs-drag-group" style="pointer-events: none;" transform="translate(-12 -3)"/><g class="djs-drag-group" style="pointer-events: none;" transform="translate(-114 0)"/><g class="djs-drag-group" style="pointer-events: none;" transform="translate(-40 0)"/><g class="djs-drag-group" style="pointer-events: none;" transform="translate(22 0)"/><g class="djs-drag-group" style="pointer-events: none;" transform="translate(-18 0)"/><g class="djs-drag-group" style="pointer-events: none;" transform="translate(49 0)"/><g class="djs-drag-group" style="pointer-events: none;" transform="translate(-229 0)"/><g class="djs-drag-group" style="pointer-events: none;" transform="translate(-233 0)"/><g class="djs-drag-group" style="pointer-events: none;" transform="translate(-215 0)"/><g class="djs-drag-group" style="pointer-events: none;" transform="translate(0 9)"/><g class="djs-drag-group" style="pointer-events: none;" transform="translate(106 0)"/><g class="djs-drag-group" style="pointer-events: none;" transform="translate(37 0)"/><g class="djs-drag-group" style="pointer-events: none;" transform="translate(0 2)"/><g class="djs-drag-group" style="pointer-events: none;" transform="translate(87 -1)"/><g class="djs-drag-group" style="pointer-events: none;" transform="translate(-57 11)"/><g class="djs-drag-group" style="pointer-events: none;" transform="translate(57 2)"/><g class="djs-drag-group" style="pointer-events: none;" transform="translate(-108 5)"/><g class="djs-drag-group" style="pointer-events: none;" transform="translate(-10 -1)"/><g class="djs-drag-group" style="pointer-events: none;" transform="translate(118 8)"/><g class="djs-drag-group" style="pointer-events: none;" transform="translate(0 26)"/><g class="djs-drag-group" style="pointer-events: none;" transform="translate(31 0)"/><g class="djs-drag-group" style="pointer-events: none;" transform="translate(78 0)"/><g class="djs-drag-group" style="pointer-events: none;" transform="translate(107 0)"/><g class="djs-drag-group" style="pointer-events: none;" transform="translate(91 0)"/><g class="djs-drag-group" style="pointer-events: none;" transform="translate(157 -16)"/><g class="djs-drag-group" style="pointer-events: none;" transform="translate(-85 16)"/><g class="djs-drag-group" style="pointer-events: none;" transform="translate(-2 -27)"/><g class="djs-drag-group" style="pointer-events: none;" transform="translate(11 -14)"/><g class="djs-drag-group" style="pointer-events: none;" transform="translate(-6 -18)"/><g class="djs-drag-group" style="pointer-events: none;" transform="translate(-2 18)"/><g class="djs-drag-group" style="pointer-events: none;" transform="translate(-70 -2)"/><g class="djs-drag-group" style="pointer-events: none;" transform="translate(15 3)"/><g class="djs-drag-group" style="pointer-events: none;" transform="translate(-30 2)"/><g class="djs-drag-group" style="pointer-events: none;" transform="translate(0 -62)"/><g class="djs-drag-group" style="pointer-events: none;" transform="translate(0 38)"/><g class="djs-drag-group" style="pointer-events: none;" transform="translate(130 -13)"/><g class="djs-drag-group" style="pointer-events: none;" transform="translate(40 -2)"/><g class="djs-drag-group" style="pointer-events: none;" transform="translate(-80 15)"/><g class="djs-drag-group" style="pointer-events: none;" transform="translate(0 21)"/><g class="djs-drag-group" style="pointer-events: none;" transform="translate(405 126)"/><g class="djs-drag-group" style="pointer-events: none;" transform="translate(63 -63)"/><g class="djs-drag-group" style="pointer-events: none;" transform="translate(47 0)"/><g class="djs-drag-group" style="pointer-events: none;" transform="translate(-311 310)"/><g class="djs-drag-group" style="pointer-events: none;" transform="translate(-6 44)"/><g class="djs-drag-group" style="pointer-events: none;" transform="translate(247 -354)"/><g class="djs-drag-group" style="pointer-events: none;" transform="translate(-11 -95)"/><g class="djs-drag-group" style="pointer-events: none;" transform="translate(9 121)"/><g class="djs-drag-group" style="pointer-events: none;" transform="translate(-9 3)"/><g class="djs-drag-group" style="pointer-events: none;" transform="translate(0 340)"/><g class="djs-drag-group" style="pointer-events: none;" transform="translate(0 147)"/><g class="djs-drag-group" style="pointer-events: none;" transform="translate(0 -26)"/><g class="djs-drag-group" style="pointer-events: none;" transform="translate(168 0)"/><g class="djs-drag-group" style="pointer-events: none;" transform="translate(83 0)"/><g class="djs-drag-group" style="pointer-events: none;" transform="translate(100 -7)"/><g class="djs-drag-group" style="pointer-events: none;" transform="translate(-9 -18)"/><g class="djs-drag-group" style="pointer-events: none;" transform="translate(9 6)"/><g class="djs-drag-group" style="pointer-events: none;" transform="translate(-9 -4)"/><g class="djs-drag-group" style="pointer-events: none;" transform="translate(2 -125)"/><g class="djs-drag-group" style="pointer-events: none;" transform="translate(-6 64)"/><g class="djs-drag-group" style="pointer-events: none;" transform="translate(21 0)"/><g class="djs-drag-group" style="pointer-events: none;" transform="translate(-48 -3)"/><g class="djs-drag-group" style="pointer-events: none;" transform="translate(62 0)"/><g class="djs-drag-group" style="pointer-events: none;" transform="translate(0 -191)"/><g class="djs-drag-group" style="pointer-events: none;" transform="translate(0 68)"/><g class="djs-drag-group" style="pointer-events: none;" transform="translate(0 56)"/><g class="djs-drag-group" style="pointer-events: none;" transform="translate(0 -53)"/><g class="djs-drag-group" style="pointer-events: none;" transform="translate(0 -37)"/><g class="djs-drag-group" style="pointer-events: none;" transform="translate(0 -33)"/><g class="djs-drag-group" style="pointer-events: none;" transform="translate(0 -8)"/><g class="djs-drag-group" style="pointer-events: none;" transform="translate(4 109)"/><g class="djs-drag-group" style="pointer-events: none;" transform="translate(-4 -4)"/><g class="djs-drag-group" style="pointer-events: none;" transform="translate(0 -59)"/><g class="djs-drag-group" style="pointer-events: none;" transform="translate(-56 0)"/><g class="djs-drag-group" style="pointer-events: none;" transform="translate(-122 0)"/><g class="djs-drag-group" style="pointer-events: none;" transform="translate(-54 49)"/><g class="djs-drag-group" style="pointer-events: none;" transform="translate(21 -17)"/><g class="djs-drag-group" style="pointer-events: none;" transform="translate(-36 5)"/><g class="djs-drag-group" style="pointer-events: none;" transform="translate(135 0)"/><g class="djs-drag-group" style="pointer-events: none;" transform="translate(197 9)"/><g class="djs-drag-group" style="pointer-events: none;" transform="translate(26 -109)"/><g class="djs-drag-group" style="pointer-events: none;" transform="translate(-111 -9)"/><g class="djs-drag-group" style="pointer-events: none;" transform="translate(71 -31)"/><g class="djs-drag-group" style="pointer-events: none;" transform="translate(-19 -18)"/><g class="djs-drag-group" style="pointer-events: none;" transform="translate(-1 -17)"/><g class="djs-drag-group" style="pointer-events: none;" transform="translate(8 32)"/><g class="djs-drag-group" style="pointer-events: none;" transform="translate(0 -25)"/><g class="djs-drag-group" style="pointer-events: none;" transform="translate(-1 7)"/><g class="djs-drag-group" style="pointer-events: none;" transform="translate(19 5)"/><g class="djs-drag-group" style="pointer-events: none;" transform="translate(0 29)"/><g class="djs-drag-group" style="pointer-events: none;" transform="translate(-104 21)"/><g class="djs-drag-group" style="pointer-events: none;" transform="translate(22 -21)"/><g class="djs-drag-group" style="pointer-events: none;" transform="translate(41 14)"/><g class="djs-drag-group" style="pointer-events: none;" transform="translate(57 30)"/><g class="djs-drag-group" style="pointer-events: none;" transform="translate(94 0)"/><g class="djs-drag-group" style="pointer-events: none;" transform="translate(67 -4)"/><g class="djs-drag-group" style="pointer-events: none;" transform="translate(-19 0)"/><g class="djs-drag-group" style="pointer-events: none;" transform="translate(-248 -31)"/><g class="djs-drag-group" style="pointer-events: none;" transform="translate(-186 -31)"/><g class="djs-drag-group" style="pointer-events: none;" transform="translate(8 33)"/><g class="djs-drag-group" style="pointer-events: none;" transform="translate(-37 21)"/><g class="djs-drag-group" style="pointer-events: none;" transform="translate(195 -9)"/><g class="djs-drag-group" style="pointer-events: none;" transform="translate(-26 35)"/><g class="djs-drag-group" style="pointer-events: none;" transform="translate(-4 0)"/></svg>