<?xml version="1.0" encoding="utf-8"?>
<!-- created with bpmn-js / http://bpmn.io -->
<!DOCTYPE svg PUBLIC "-//W3C//DTD SVG 1.1//EN" "http://www.w3.org/Graphics/SVG/1.1/DTD/svg11.dtd">
<svg xmlns="http://www.w3.org/2000/svg" xmlns:xlink="http://www.w3.org/1999/xlink" width="810" height="475" viewBox="522 86 810 475" version="1.1"><defs><marker id="sequenceflow-end-white-black-688y12mzvv09hl02pnn8w652h" viewBox="0 0 20 20" refX="11" refY="10" markerWidth="10" markerHeight="10" orient="auto"><path d="M 1 5 L 11 10 L 1 15 Z" style="fill: black; stroke-width: 1px; stroke-linecap: round; stroke-dasharray: 10000, 1; stroke: black;"/></marker><marker id="messageflow-end-white-black-688y12mzvv09hl02pnn8w652h" viewBox="0 0 20 20" refX="8.5" refY="5" markerWidth="20" markerHeight="20" orient="auto"><path d="m 1 5 l 0 -3 l 7 3 l -7 3 z" style="fill: white; stroke-width: 1px; stroke-linecap: butt; stroke-dasharray: 10000, 1; stroke: black;"/></marker><marker id="messageflow-start-white-black-688y12mzvv09hl02pnn8w652h" viewBox="0 0 20 20" refX="6" refY="6" markerWidth="20" markerHeight="20" orient="auto"><circle cx="6" cy="6" r="3.5" style="fill: white; stroke-width: 1px; stroke-linecap: round; stroke-dasharray: 10000, 1; stroke: black;"/></marker><marker id="association-end-white-black-688y12mzvv09hl02pnn8w652h" viewBox="0 0 20 20" refX="12" refY="10" markerWidth="10" markerHeight="10" orient="auto"><path d="M 1 5 L 11 10 L 1 15" style="fill: none; stroke-width: 1.5px; stroke-linecap: round; stroke-dasharray: 10000, 1; stroke: black;"/></marker></defs><g class="djs-group"><g class="djs-element djs-shape" data-element-id="Participant_13gxkbb" style="display: block;" transform="translate(528 92)"><g class="djs-visual"><rect x="0" y="0" width="798" height="463" rx="0" ry="0" style="stroke: black; stroke-width: 2px; fill: white; fill-opacity: 0.95;"/><polyline points="30,0 30,463 " style="fill: none; stroke: black; stroke-width: 2px;"/><text lineHeight="1.2" class="djs-label" style="font-family: Arial, sans-serif; font-size: 12px; font-weight: normal; fill: black;" transform="matrix(-1.83697e-16 -1 1 -1.83697e-16 0 463)"><tspan x="154.09375" y="18.6">SUPERVISIONAR ESTÁGIO</tspan></text></g><rect x="0" y="0" width="798" height="463" class="djs-hit" style="fill: none; stroke-opacity: 0; stroke: white; stroke-width: 15px;"/><rect x="-6" y="-6" width="810" height="475" class="djs-outline" style="fill: none;"/></g><g class="djs-children"><g class="djs-group"><g class="djs-element djs-shape" data-element-id="Lane_1nssbvm" style="display: block;" transform="translate(558 354)"><g class="djs-visual"><rect x="0" y="0" width="768" height="201" rx="0" ry="0" style="stroke: black; stroke-width: 2px; fill: white; fill-opacity: 0.35;"/><text lineHeight="1.2" class="djs-label" style="font-family: Arial, sans-serif; font-size: 12px; font-weight: normal; fill: black;" transform="matrix(-1.83697e-16 -1 1 -1.83697e-16 0 201)"><tspan x="42.3046875" y="18.6">Surpevisor de estágio</tspan></text></g><rect x="0" y="0" width="768" height="201" class="djs-hit" style="fill: none; stroke-opacity: 0; stroke: white; stroke-width: 15px;"/><rect x="-6" y="-6" width="780" height="213" class="djs-outline" style="fill: none;"/></g><g class="djs-children"/></g><g class="djs-group"><g class="djs-element djs-shape selected" data-element-id="Lane_02ju93c" style="display: block;" transform="translate(558 92)"><g class="djs-visual"><rect x="0" y="0" width="768" height="262" rx="0" ry="0" style="stroke: black; stroke-width: 2px; fill: white; fill-opacity: 0.35;"/><text lineHeight="1.2" class="djs-label" style="font-family: Arial, sans-serif; font-size: 12px; font-weight: normal; fill: black;" transform="matrix(-1.83697e-16 -1 1 -1.83697e-16 0 262)"><tspan x="115.4921875" y="18.6">Aluno</tspan></text></g><rect x="0" y="0" width="768" height="262" class="djs-hit" style="fill: none; stroke-opacity: 0; stroke: white; stroke-width: 15px;"/><rect x="-6" y="-6" width="780" height="274" class="djs-outline" style="fill: none;"/></g></g><g class="djs-group"><g class="djs-element djs-connection" data-element-id="SequenceFlow_0mwy1qy" style="display: block;"><g class="djs-visual"><path d="m  677,183L774,183 " style="fill: none; stroke-width: 2px; stroke: black; stroke-linejoin: round; marker-end: url('#sequenceflow-end-white-black-688y12mzvv09hl02pnn8w652h');"/></g><polyline points="677,183 774,183 " class="djs-hit" style="fill: none; stroke-opacity: 0; stroke: white; stroke-width: 15px;"/><rect x="671" y="177" width="109" height="12" class="djs-outline" style="fill: none;"/></g></g><g class="djs-group"><g class="djs-element djs-connection" data-element-id="SequenceFlow_0xb5hr3" style="display: block;"><g class="djs-visual"><path d="m  874,183L910,183 L910,300 L684,300 L684,402 " style="fill: none; stroke-width: 2px; stroke: black; stroke-linejoin: round; marker-end: url('#sequenceflow-end-white-black-688y12mzvv09hl02pnn8w652h');"/></g><polyline points="874,183 910,183 910,300 684,300 684,402 " class="djs-hit" style="fill: none; stroke-opacity: 0; stroke: white; stroke-width: 15px;"/><rect x="678" y="177" width="238" height="231" class="djs-outline" style="fill: none;"/></g></g><g class="djs-group"><g class="djs-element djs-connection" data-element-id="SequenceFlow_0wjezcf" style="display: block;"><g class="djs-visual"><path d="m  743,442L1015,442 L1015,183 L1051,183 " style="fill: none; stroke-width: 2px; stroke: black; stroke-linejoin: round; marker-end: url('#sequenceflow-end-white-black-688y12mzvv09hl02pnn8w652h');"/></g><polyline points="743,442 1015,442 1015,183 1051,183 " class="djs-hit" style="fill: none; stroke-opacity: 0; stroke: white; stroke-width: 15px;"/><rect x="737" y="177" width="320" height="271" class="djs-outline" style="fill: none;"/></g></g><g class="djs-group"><g class="djs-element djs-connection" data-element-id="SequenceFlow_04sje4w" style="display: block;"><g class="djs-visual"><path d="m  1151,183L1201,183 " style="fill: none; stroke-width: 2px; stroke: black; stroke-linejoin: round; marker-end: url('#sequenceflow-end-white-black-688y12mzvv09hl02pnn8w652h');"/></g><polyline points="1151,183 1201,183 " class="djs-hit" style="fill: none; stroke-opacity: 0; stroke: white; stroke-width: 15px;"/><rect x="1145" y="177" width="62" height="12" class="djs-outline" style="fill: none;"/></g></g><g class="djs-group"><g class="djs-element djs-shape" data-element-id="StartEvent_1" style="display: block;" transform="translate(641 165)"><g class="djs-visual"><circle cx="18" cy="18" r="18" style="stroke: black; stroke-width: 2px; fill: white; fill-opacity: 0.95;"/></g><rect x="0" y="0" width="36" height="36" class="djs-hit" style="fill: none; stroke-opacity: 0; stroke: white; stroke-width: 15px;"/><rect x="-6" y="-6" width="48" height="48" class="djs-outline" style="fill: none;"/></g></g><g class="djs-group"><g class="djs-element djs-shape" data-element-id="StartEvent_1_label" style="display: block;" transform="translate(621 208)"><g class="djs-visual"><text lineHeight="1.2" class="djs-label" style="font-family: Arial, sans-serif; font-size: 11px; font-weight: normal; fill: black;"><tspan x="11.015625" y="9.899999999999999">Dificuldade </tspan><tspan x="0" y="23.099999999999998">apresentada no </tspan><tspan x="20.4921875" y="36.3">estágio</tspan></text></g><rect x="0" y="0" width="77" height="40" class="djs-hit" style="fill: none; stroke-opacity: 0; stroke: white; stroke-width: 15px;"/><rect x="-6" y="-6" width="89" height="52" class="djs-outline" style="fill: none;"/></g></g><g class="djs-group"><g class="djs-element djs-shape" data-element-id="Task_1prqc5s" style="display: block;" transform="translate(774 143)"><g class="djs-visual"><rect x="0" y="0" width="100" height="80" rx="10" ry="10" style="stroke: black; stroke-width: 2px; fill: white; fill-opacity: 0.95;"/><text lineHeight="1.2" class="djs-label" style="font-family: Arial, sans-serif; font-size: 12px; font-weight: normal; fill: black;"><tspan x="10.484375" y="29.200000000000003">Procurar ajuda </tspan><tspan x="33.5" y="43.6">com o </tspan><tspan x="22.328125" y="58">supervisor</tspan></text></g><rect x="0" y="0" width="100" height="80" class="djs-hit" style="fill: none; stroke-opacity: 0; stroke: white; stroke-width: 15px;"/><rect x="-6" y="-6" width="112" height="92" class="djs-outline" style="fill: none;"/></g></g><g class="djs-group"><g class="djs-element djs-shape" data-element-id="Task_1xklp86" style="display: block;" transform="translate(1051 143)"><g class="djs-visual"><rect x="0" y="0" width="100" height="80" rx="10" ry="10" style="stroke: black; stroke-width: 2px; fill: white; fill-opacity: 0.95;"/><text lineHeight="1.2" class="djs-label" style="font-family: Arial, sans-serif; font-size: 12px; font-weight: normal; fill: black;"><tspan x="10.15625" y="29.200000000000003">Finalizar tarefa </tspan><tspan x="6.484375" y="43.6">com o auxilio do</tspan><tspan x="22.328125" y="58">supervisor</tspan></text></g><rect x="0" y="0" width="100" height="80" class="djs-hit" style="fill: none; stroke-opacity: 0; stroke: white; stroke-width: 15px;"/><rect x="-6" y="-6" width="112" height="92" class="djs-outline" style="fill: none;"/></g></g><g class="djs-group"><g class="djs-element djs-shape" data-element-id="EndEvent_0jkg5b6" style="display: block;" transform="translate(1201 165)"><g class="djs-visual"><circle cx="18" cy="18" r="18" style="stroke: black; stroke-width: 4px; fill: white; fill-opacity: 0.95;"/></g><rect x="0" y="0" width="36" height="36" class="djs-hit" style="fill: none; stroke-opacity: 0; stroke: white; stroke-width: 15px;"/><rect x="-6" y="-6" width="48" height="48" class="djs-outline" style="fill: none;"/></g></g><g class="djs-group"><g class="djs-element djs-shape" data-element-id="Task_0l5mugg" style="display: block;" transform="translate(643 402)"><g class="djs-visual"><rect x="0" y="0" width="100" height="80" rx="10" ry="10" style="stroke: black; stroke-width: 2px; fill: white; fill-opacity: 0.95;"/><text lineHeight="1.2" class="djs-label" style="font-family: Arial, sans-serif; font-size: 12px; font-weight: normal; fill: black;"><tspan x="25.1640625" y="22">Auxiliar o </tspan><tspan x="9.484375" y="36.4">supervisionado </tspan><tspan x="7.4765625" y="50.8">na execução da </tspan><tspan x="34.5" y="65.19999999999999">tarefa</tspan></text></g><rect x="0" y="0" width="100" height="80" class="djs-hit" style="fill: none; stroke-opacity: 0; stroke: white; stroke-width: 15px;"/><rect x="-6" y="-6" width="112" height="92" class="djs-outline" style="fill: none;"/></g></g></g></g><g class="djs-drag-group" style="pointer-events: none;" transform="translate(197 33)"/><g class="djs-drag-group" style="pointer-events: none;" transform="translate(46 105)"/><g class="djs-drag-group" style="pointer-events: none;" transform="translate(-14 -98)"/><g class="djs-drag-group" style="pointer-events: none;" transform="translate(-136 97)"/><g class="djs-drag-group" style="pointer-events: none;" transform="translate(0 23)"/><g class="djs-drag-group" style="pointer-events: none;" transform="translate(44 0)"/><g class="djs-drag-group" style="pointer-events: none;" transform="translate(-662 361)"/><g class="djs-drag-group" style="pointer-events: none;" transform="translate(459 48)"/><g class="djs-drag-group" style="pointer-events: none;" transform="translate(-47 9)"/><g class="djs-drag-group" style="pointer-events: none;" transform="translate(36 98)"/><g class="djs-drag-group" style="pointer-events: none;" transform="translate(-9 -33)"/><g class="djs-drag-group" style="pointer-events: none;" transform="translate(15 24)"/><g class="djs-drag-group" style="pointer-events: none;" transform="translate(-218 229)"/><g class="djs-drag-group" style="pointer-events: none;" transform="translate(0 240)"/><g class="djs-drag-group" style="pointer-events: none;" transform="translate(0 240)"/><g class="djs-drag-group" style="pointer-events: none;" transform="translate(30 0)"/><g class="djs-drag-group" style="pointer-events: none;" transform="translate(9 1)"/><g class="djs-drag-group" style="pointer-events: none;" transform="translate(-7 -29)"/><g class="djs-drag-group" style="pointer-events: none;" transform="translate(-6 42)"/><g class="djs-drag-group" style="pointer-events: none;" transform="translate(186 0)"/><g class="djs-drag-group" style="pointer-events: none;" transform="translate(37 1)"/><g class="djs-drag-group" style="pointer-events: none;" transform="translate(-118 0)"/><g class="djs-drag-group" style="pointer-events: none;" transform="translate(26 240)"/><g class="djs-drag-group" style="pointer-events: none;" transform="translate(0 -50)"/><g class="djs-drag-group" style="pointer-events: none;" transform="translate(-1 19)"/><g class="djs-drag-group" style="pointer-events: none;" transform="translate(-9 3)"/><g class="djs-drag-group" style="pointer-events: none;" transform="translate(9 63)"/><g class="djs-drag-group" style="pointer-events: none;" transform="translate(21 0)"/><g class="djs-drag-group" style="pointer-events: none;" transform="translate(62 0)"/><g class="djs-drag-group" style="pointer-events: none;" transform="translate(-143 28)"/><g class="djs-drag-group" style="pointer-events: none;" transform="translate(-76 0)"/><g class="djs-drag-group" style="pointer-events: none;" transform="translate(0 9)"/><g class="djs-drag-group" style="pointer-events: none;" transform="translate(266 -8)"/><g class="djs-drag-group" style="pointer-events: none;" transform="translate(325 0)"/><g class="djs-drag-group" style="pointer-events: none;" transform="translate(181 0)"/><g class="djs-drag-group" style="pointer-events: none;" transform="translate(-52 0)"/><g class="djs-drag-group" style="pointer-events: none;" transform="translate(32 0)"/><g class="djs-drag-group" style="pointer-events: none;" transform="translate(-16 0)"/><g class="djs-drag-group" style="pointer-events: none;" transform="translate(-159 0)"/><g class="djs-drag-group" style="pointer-events: none;" transform="translate(123 0)"/><g class="djs-drag-group" style="pointer-events: none;" transform="translate(151 0)"/><g class="djs-drag-group" style="pointer-events: none;" transform="translate(184 0)"/><g class="djs-drag-group" style="pointer-events: none;" transform="translate(131 0)"/><g class="djs-drag-group" style="pointer-events: none;" transform="translate(32 0)"/><g class="djs-drag-group" style="pointer-events: none;" transform="translate(3 6)"/><g class="djs-drag-group" style="pointer-events: none;" transform="translate(-3 -21)"/><g class="djs-drag-group" style="pointer-events: none;" transform="translate(-90 -110)"/><g class="djs-drag-group" style="pointer-events: none;" transform="translate(-119 -110)"/><g class="djs-drag-group" style="pointer-events: none;" transform="translate(41 9)"/><g class="djs-drag-group" style="pointer-events: none;" transform="translate(0 -22)"/><g class="djs-drag-group" style="pointer-events: none;" transform="translate(8 13)"/><g class="djs-drag-group" style="pointer-events: none;" transform="translate(22 0)"/><g class="djs-drag-group" style="pointer-events: none;" transform="translate(77 0)"/><g class="djs-drag-group" style="pointer-events: none;" transform="translate(116 0)"/><g class="djs-drag-group" style="pointer-events: none;" transform="translate(147 0)"/><g class="djs-drag-group" style="pointer-events: none;" transform="translate(285 0)"/><g class="djs-drag-group" style="pointer-events: none;" transform="translate(6 3)"/><g class="djs-drag-group" style="pointer-events: none;" transform="translate(-12 -3)"/><g class="djs-drag-group" style="pointer-events: none;" transform="translate(-114 0)"/><g class="djs-drag-group" style="pointer-events: none;" transform="translate(-40 0)"/><g class="djs-drag-group" style="pointer-events: none;" transform="translate(22 0)"/><g class="djs-drag-group" style="pointer-events: none;" transform="translate(-18 0)"/><g class="djs-drag-group" style="pointer-events: none;" transform="translate(49 0)"/><g class="djs-drag-group" style="pointer-events: none;" transform="translate(-229 0)"/><g class="djs-drag-group" style="pointer-events: none;" transform="translate(-233 0)"/><g class="djs-drag-group" style="pointer-events: none;" transform="translate(-215 0)"/><g class="djs-drag-group" style="pointer-events: none;" transform="translate(0 9)"/><g class="djs-drag-group" style="pointer-events: none;" transform="translate(106 0)"/><g class="djs-drag-group" style="pointer-events: none;" transform="translate(37 0)"/><g class="djs-drag-group" style="pointer-events: none;" transform="translate(0 2)"/><g class="djs-drag-group" style="pointer-events: none;" transform="translate(87 -1)"/><g class="djs-drag-group" style="pointer-events: none;" transform="translate(-57 11)"/><g class="djs-drag-group" style="pointer-events: none;" transform="translate(57 2)"/><g class="djs-drag-group" style="pointer-events: none;" transform="translate(-108 5)"/><g class="djs-drag-group" style="pointer-events: none;" transform="translate(-10 -1)"/><g class="djs-drag-group" style="pointer-events: none;" transform="translate(118 8)"/><g class="djs-drag-group" style="pointer-events: none;" transform="translate(0 26)"/><g class="djs-drag-group" style="pointer-events: none;" transform="translate(31 0)"/><g class="djs-drag-group" style="pointer-events: none;" transform="translate(78 0)"/><g class="djs-drag-group" style="pointer-events: none;" transform="translate(107 0)"/><g class="djs-drag-group" style="pointer-events: none;" transform="translate(91 0)"/><g class="djs-drag-group" style="pointer-events: none;" transform="translate(157 -16)"/><g class="djs-drag-group" style="pointer-events: none;" transform="translate(-85 16)"/><g class="djs-drag-group" style="pointer-events: none;" transform="translate(-2 -27)"/><g class="djs-drag-group" style="pointer-events: none;" transform="translate(11 -14)"/><g class="djs-drag-group" style="pointer-events: none;" transform="translate(-6 -18)"/><g class="djs-drag-group" style="pointer-events: none;" transform="translate(-2 18)"/><g class="djs-drag-group" style="pointer-events: none;" transform="translate(-70 -2)"/><g class="djs-drag-group" style="pointer-events: none;" transform="translate(15 3)"/><g class="djs-drag-group" style="pointer-events: none;" transform="translate(-30 2)"/><g class="djs-drag-group" style="pointer-events: none;" transform="translate(0 -62)"/><g class="djs-drag-group" style="pointer-events: none;" transform="translate(0 38)"/><g class="djs-drag-group" style="pointer-events: none;" transform="translate(130 -13)"/><g class="djs-drag-group" style="pointer-events: none;" transform="translate(40 -2)"/><g class="djs-drag-group" style="pointer-events: none;" transform="translate(-80 15)"/><g class="djs-drag-group" style="pointer-events: none;" transform="translate(0 21)"/><g class="djs-drag-group" style="pointer-events: none;" transform="translate(405 126)"/><g class="djs-drag-group" style="pointer-events: none;" transform="translate(63 -63)"/><g class="djs-drag-group" style="pointer-events: none;" transform="translate(47 0)"/><g class="djs-drag-group" style="pointer-events: none;" transform="translate(-311 310)"/><g class="djs-drag-group" style="pointer-events: none;" transform="translate(-6 44)"/><g class="djs-drag-group" style="pointer-events: none;" transform="translate(247 -354)"/><g class="djs-drag-group" style="pointer-events: none;" transform="translate(-11 -95)"/></svg>